<svg width="202" height="44" viewBox="0 0 202 44" fill="none" xmlns="http://www.w3.org/2000/svg">
<g filter="url(#filter0_d)">
<path d="M20.7375 0.875H26.6438V24.8047C26.6438 28.0703 25.6203 30.6641 23.5734 32.5859C21.5422 34.5078 18.8547 35.4688 15.5109 35.4688C11.9484 35.4688 9.19844 34.5703 7.26094 32.7734C5.32344 30.9766 4.35469 28.4766 4.35469 25.2734H10.2609C10.2609 27.0859 10.7063 28.4531 11.5969 29.375C12.5031 30.2812 13.8078 30.7344 15.5109 30.7344C17.1047 30.7344 18.3703 30.2109 19.3078 29.1641C20.2609 28.1016 20.7375 26.6406 20.7375 24.7812V0.875ZM50.4422 35C50.1922 34.5156 49.9734 33.7266 49.7859 32.6328C47.9734 34.5234 45.7547 35.4688 43.1297 35.4688C40.5828 35.4688 38.5047 34.7422 36.8953 33.2891C35.2859 31.8359 34.4813 30.0391 34.4813 27.8984C34.4813 25.1953 35.4813 23.125 37.4813 21.6875C39.4969 20.2344 42.3719 19.5078 46.1063 19.5078H49.5984V17.8438C49.5984 16.5312 49.2313 15.4844 48.4969 14.7031C47.7625 13.9062 46.6453 13.5078 45.1453 13.5078C43.8484 13.5078 42.7859 13.8359 41.9578 14.4922C41.1297 15.1328 40.7156 15.9531 40.7156 16.9531H35.0203C35.0203 15.5625 35.4813 14.2656 36.4031 13.0625C37.325 11.8438 38.575 10.8906 40.1531 10.2031C41.7469 9.51562 43.5203 9.17188 45.4734 9.17188C48.4422 9.17188 50.8094 9.92188 52.575 11.4219C54.3406 12.9062 55.2469 15 55.2938 17.7031V29.1406C55.2938 31.4219 55.6141 33.2422 56.2547 34.6016V35H50.4422ZM44.1844 30.8984C45.3094 30.8984 46.3641 30.625 47.3484 30.0781C48.3484 29.5312 49.0984 28.7969 49.5984 27.875V23.0938H46.5281C44.4188 23.0938 42.8328 23.4609 41.7703 24.1953C40.7078 24.9297 40.1766 25.9688 40.1766 27.3125C40.1766 28.4062 40.5359 29.2812 41.2547 29.9375C41.9891 30.5781 42.9656 30.8984 44.1844 30.8984ZM77.8734 28.1094C77.8734 27.0938 77.4516 26.3203 76.6078 25.7891C75.7797 25.2578 74.3969 24.7891 72.4594 24.3828C70.5219 23.9766 68.9047 23.4609 67.6078 22.8359C64.7641 21.4609 63.3422 19.4688 63.3422 16.8594C63.3422 14.6719 64.2641 12.8438 66.1078 11.375C67.9516 9.90625 70.2953 9.17188 73.1391 9.17188C76.1703 9.17188 78.6156 9.92188 80.475 11.4219C82.35 12.9219 83.2875 14.8672 83.2875 17.2578H77.5922C77.5922 16.1641 77.1859 15.2578 76.3734 14.5391C75.5609 13.8047 74.4828 13.4375 73.1391 13.4375C71.8891 13.4375 70.8656 13.7266 70.0688 14.3047C69.2875 14.8828 68.8969 15.6562 68.8969 16.625C68.8969 17.5 69.2641 18.1797 69.9984 18.6641C70.7328 19.1484 72.2172 19.6406 74.4516 20.1406C76.6859 20.625 78.4359 21.2109 79.7016 21.8984C80.9828 22.5703 81.9281 23.3828 82.5375 24.3359C83.1625 25.2891 83.475 26.4453 83.475 27.8047C83.475 30.0859 82.5297 31.9375 80.6391 33.3594C78.7484 34.7656 76.2719 35.4688 73.2094 35.4688C71.1313 35.4688 69.2797 35.0938 67.6547 34.3438C66.0297 33.5938 64.7641 32.5625 63.8578 31.25C62.9516 29.9375 62.4984 28.5234 62.4984 27.0078H68.0297C68.1078 28.3516 68.6156 29.3906 69.5531 30.125C70.4906 30.8438 71.7328 31.2031 73.2797 31.2031C74.7797 31.2031 75.9203 30.9219 76.7016 30.3594C77.4828 29.7812 77.8734 29.0312 77.8734 28.1094ZM105.07 28.1094C105.07 27.0938 104.648 26.3203 103.805 25.7891C102.977 25.2578 101.594 24.7891 99.6562 24.3828C97.7188 23.9766 96.1016 23.4609 94.8047 22.8359C91.9609 21.4609 90.5391 19.4688 90.5391 16.8594C90.5391 14.6719 91.4609 12.8438 93.3047 11.375C95.1484 9.90625 97.4922 9.17188 100.336 9.17188C103.367 9.17188 105.812 9.92188 107.672 11.4219C109.547 12.9219 110.484 14.8672 110.484 17.2578H104.789C104.789 16.1641 104.383 15.2578 103.57 14.5391C102.758 13.8047 101.68 13.4375 100.336 13.4375C99.0859 13.4375 98.0625 13.7266 97.2656 14.3047C96.4844 14.8828 96.0938 15.6562 96.0938 16.625C96.0938 17.5 96.4609 18.1797 97.1953 18.6641C97.9297 19.1484 99.4141 19.6406 101.648 20.1406C103.883 20.625 105.633 21.2109 106.898 21.8984C108.18 22.5703 109.125 23.3828 109.734 24.3359C110.359 25.2891 110.672 26.4453 110.672 27.8047C110.672 30.0859 109.727 31.9375 107.836 33.3594C105.945 34.7656 103.469 35.4688 100.406 35.4688C98.3281 35.4688 96.4766 35.0938 94.8516 34.3438C93.2266 33.5938 91.9609 32.5625 91.0547 31.25C90.1484 29.9375 89.6953 28.5234 89.6953 27.0078H95.2266C95.3047 28.3516 95.8125 29.3906 96.75 30.125C97.6875 30.8438 98.9297 31.2031 100.477 31.2031C101.977 31.2031 103.117 30.9219 103.898 30.3594C104.68 29.7812 105.07 29.0312 105.07 28.1094ZM123.408 9.64062L123.572 12.2891C125.353 10.2109 127.791 9.17188 130.884 9.17188C134.275 9.17188 136.595 10.4688 137.845 13.0625C139.689 10.4688 142.283 9.17188 145.627 9.17188C148.423 9.17188 150.502 9.94531 151.861 11.4922C153.236 13.0391 153.939 15.3203 153.97 18.3359V35H148.275V18.5C148.275 16.8906 147.923 15.7109 147.22 14.9609C146.517 14.2109 145.353 13.8359 143.728 13.8359C142.431 13.8359 141.369 14.1875 140.541 14.8906C139.728 15.5781 139.158 16.4844 138.83 17.6094L138.853 35H133.158V18.3125C133.08 15.3281 131.556 13.8359 128.588 13.8359C126.306 13.8359 124.689 14.7656 123.736 16.625V35H118.041V9.64062H123.408ZM168.277 35H162.581V9.64062H168.277V35ZM162.23 3.05469C162.23 2.17969 162.503 1.45313 163.05 0.875C163.613 0.296875 164.409 0.0078125 165.441 0.0078125C166.472 0.0078125 167.269 0.296875 167.831 0.875C168.394 1.45313 168.675 2.17969 168.675 3.05469C168.675 3.91406 168.394 4.63281 167.831 5.21094C167.269 5.77344 166.472 6.05469 165.441 6.05469C164.409 6.05469 163.613 5.77344 163.05 5.21094C162.503 4.63281 162.23 3.91406 162.23 3.05469ZM182.184 9.64062L182.348 12.5703C184.223 10.3047 186.684 9.17188 189.731 9.17188C195.012 9.17188 197.7 12.1953 197.794 18.2422V35H192.098V18.5703C192.098 16.9609 191.747 15.7734 191.044 15.0078C190.356 14.2266 189.223 13.8359 187.645 13.8359C185.348 13.8359 183.637 14.875 182.512 16.9531V35H176.817V9.64062H182.184Z" fill="#DDB7AB"/>
</g>
<defs>
<filter id="filter0_d" x="0.354675" y="0.0078125" width="201.439" height="43.4609" filterUnits="userSpaceOnUse" color-interpolation-filters="sRGB">
<feFlood flood-opacity="0" result="BackgroundImageFix"/>
<feColorMatrix in="SourceAlpha" type="matrix" values="0 0 0 0 0 0 0 0 0 0 0 0 0 0 0 0 0 0 127 0" result="hardAlpha"/>
<feOffset dy="4"/>
<feGaussianBlur stdDeviation="2"/>
<feComposite in2="hardAlpha" operator="out"/>
<feColorMatrix type="matrix" values="0 0 0 0 0 0 0 0 0 0 0 0 0 0 0 0 0 0 0.25 0"/>
<feBlend mode="normal" in2="BackgroundImageFix" result="effect1_dropShadow"/>
<feBlend mode="normal" in="SourceGraphic" in2="effect1_dropShadow" result="shape"/>
</filter>
</defs>
</svg>
